<?xml version="1.0" encoding="UTF-8"?>
<svg id="Layer_1" xmlns="http://www.w3.org/2000/svg" version="1.1" viewBox="0 0 845 1340">
  <!-- Generator: Adobe Illustrator 29.8.1, SVG Export Plug-In . SVG Version: 2.1.1 Build 2)  -->
  <defs>
    <style>
      .st0 {
        fill: #fdfdff;
      }
    </style>
  </defs>
  <path class="st0" d="M453.9,242c-207.9,0-376.2,169.7-376.2,376.2s53.9,221.6,137.9,290.5c19-32.5,39.8-68,62.2-106.1-13.3-55-19.1-118.3-19.1-184.4,0-190.9,46.7-363.4,195.2-363.4s86,19.3,114.9,51.4c7.4-12.6,14.8-25.2,22.2-37.9-42.5-16.7-88.6-26.2-137-26.2Z"/>
  <path class="st0" d="M634.4,293.5L800.5,9.1l-11-9.1C778.3,18.9,0,1321,0,1321l23.3,19,233-399c60.5,41.5,133.5,66,212.5,66,207.9,0,376.2-168.2,376.2-376.2s-85.9-275.7-210.6-337.2ZM468.8,994.4h0c-81.2,0-131.7-51.3-161.1-129,77.8-131,241.5-410,301.3-512.1,39.7,68.3,54.9,170,54.9,277.6,0,192.3-48.1,363.4-195.2,363.4Z"/>
</svg>